<?xml version="1.0" encoding="utf-8"?>
<svg version="1.1" id="Layer_1" xmlns="http://www.w3.org/2000/svg" xmlns:xlink="http://www.w3.org/1999/xlink" x="0px" y="0px"
	 width="32px" height="32px" viewBox="0 0 32 32" enable-background="new 0 0 32 32" xml:space="preserve">
	<defs>
		<linearGradient id="cache_shield_grad" x1="0%" y1="0%" x2="100%" y2="100%">
			<stop offset="0%" stop-color="#15803d"/>
			<stop offset="100%" stop-color="#052e16"/>
		</linearGradient>
		<linearGradient id="cache_hazard_grad" x1="0%" y1="0%" x2="0%" y2="100%">
			<stop offset="0%" stop-color="#facc15"/>
			<stop offset="100%" stop-color="#ca8a04"/>
		</linearGradient>
	</defs>
	<!-- Outer Shield Frame -->
	<g id="Cache_Shield_Base">
		<path fill="url(#cache_shield_grad)" stroke="#22c55e" stroke-width="0.8" d="M16,1.2 L29.5,4.8 C29.5,18.5 22.8,28.2 16,30.8 C9.2,28.2 2.5,18.5 2.5,4.8 Z"/>
		<path fill="none" stroke="#14532d" stroke-width="0.5" stroke-dasharray="1,1" d="M16,2.5 L28,5.8 C28,17.5 22,26.5 16,29 C10,26.5 4,17.5 4,5.8 Z"/>
	</g>
	<!-- Chernobyl Nuclear Radiation / Trefoil Emblem -->
	<g id="Cache_Trefoil" transform="translate(16, 15.5) scale(0.72)">
		<!-- Center Hub -->
		<circle cx="0" cy="0" r="2.8" fill="#facc15" stroke="#166534" stroke-width="0.5"/>
		<circle cx="0" cy="0" r="1.1" fill="#052e16"/>
		<!-- Blade Top -->
		<path fill="url(#cache_hazard_grad)" d="M -2,-4.5 A 10.5,10.5 0 0,1 2,-4.5 L 4.5,-12.5 A 13.5,13.5 0 0,0 -4.5,-12.5 Z"/>
		<!-- Blade Bottom Right -->
		<path fill="url(#cache_hazard_grad)" transform="rotate(120)" d="M -2,-4.5 A 10.5,10.5 0 0,1 2,-4.5 L 4.5,-12.5 A 13.5,13.5 0 0,0 -4.5,-12.5 Z"/>
		<!-- Blade Bottom Left -->
		<path fill="url(#cache_hazard_grad)" transform="rotate(240)" d="M -2,-4.5 A 10.5,10.5 0 0,1 2,-4.5 L 4.5,-12.5 A 13.5,13.5 0 0,0 -4.5,-12.5 Z"/>
	</g>
	<!-- Top Star Accent (Soviet / Chernobyl Military Facility) -->
	<polygon points="16,4.2 17.1,6.5 19.5,6.7 17.7,8.3 18.2,10.7 16,9.4 13.8,10.7 14.3,8.3 12.5,6.7 14.9,6.5" fill="#facc15" stroke="#ca8a04" stroke-width="0.2"/>
</svg>
